<svg width="13" height="12" viewBox="0 0 13 12" fill="none" xmlns="http://www.w3.org/2000/svg">
<path d="M12.4549 6.53074L7.95491 11.0307C7.81401 11.1716 7.62292 11.2508 7.42366 11.2508C7.2244 11.2508 7.03331 11.1716 6.89241 11.0307C6.75151 10.8898 6.67236 10.6987 6.67236 10.4995C6.67236 10.3002 6.75151 10.1091 6.89241 9.96824L10.1118 6.75011H0.924286C0.725374 6.75011 0.534608 6.67109 0.393956 6.53044C0.253304 6.38979 0.174286 6.19902 0.174286 6.00011C0.174286 5.8012 0.253304 5.61043 0.393956 5.46978C0.534608 5.32913 0.725374 5.25011 0.924286 5.25011H10.1118L6.89366 2.03011C6.75276 1.88921 6.67361 1.69812 6.67361 1.49886C6.67361 1.2996 6.75276 1.10851 6.89366 0.967609C7.03456 0.826713 7.22565 0.747559 7.42491 0.747559C7.62417 0.747559 7.81526 0.826713 7.95616 0.967609L12.4562 5.46761C12.5261 5.53738 12.5816 5.62028 12.6194 5.71155C12.6572 5.80281 12.6766 5.90065 12.6764 5.99943C12.6763 6.09822 12.6567 6.19601 12.6187 6.28718C12.5807 6.37836 12.525 6.46113 12.4549 6.53074Z" fill="white"/>
</svg>
