<svg width="14" height="11" viewBox="0 0 14 11" fill="none" xmlns="http://www.w3.org/2000/svg">
<path d="M13.0306 6.03061L8.53063 10.5306C8.38973 10.6715 8.19863 10.7507 7.99938 10.7507C7.80012 10.7507 7.60902 10.6715 7.46813 10.5306C7.32723 10.3897 7.24807 10.1986 7.24807 9.99936C7.24807 9.80011 7.32723 9.60901 7.46813 9.46811L10.6875 6.24999H1.5C1.30109 6.24999 1.11032 6.17097 0.96967 6.03032C0.829018 5.88967 0.75 5.6989 0.75 5.49999C0.75 5.30108 0.829018 5.11031 0.96967 4.96966C1.11032 4.829 1.30109 4.74999 1.5 4.74999H10.6875L7.46937 1.52999C7.32848 1.38909 7.24932 1.19799 7.24932 0.998737C7.24932 0.79948 7.32848 0.608384 7.46937 0.467487C7.61027 0.326591 7.80137 0.247437 8.00062 0.247437C8.19988 0.247437 8.39098 0.326591 8.53187 0.467487L13.0319 4.96749C13.1018 5.03726 13.1573 5.12016 13.1951 5.21142C13.2329 5.30269 13.2523 5.40052 13.2522 5.49931C13.252 5.59809 13.2324 5.69588 13.1944 5.78706C13.1564 5.87824 13.1007 5.96101 13.0306 6.03061Z" fill="black"/>
</svg>
