<svg width="18.751282" height="18.754028" viewBox="0 0 18.7513 18.754" fill="none" xmlns="http://www.w3.org/2000/svg" xmlns:xlink="http://www.w3.org/1999/xlink">
	<desc>
			Created with Pixso.
	</desc>
	<defs/>
	<path id="Vector" d="M18.6967 1.11206C18.6805 0.836914 18.564 0.577148 18.369 0.382202C18.1741 0.187256 17.9144 0.0706787 17.6392 0.0545654C13.9266 -0.163818 10.6463 0.273926 7.88916 1.35486C5.25104 2.38892 3.21759 3.99207 2.00635 5.99084C0.354431 8.71985 0.350708 12.0331 1.96411 15.1962L0.330078 16.8302C0.225403 16.9348 0.142395 17.0591 0.0857544 17.1958C0.0291748 17.3325 0 17.4791 0 17.6271C0 17.7751 0.0291748 17.9216 0.0857544 18.0583C0.142395 18.1951 0.225403 18.3193 0.330078 18.424C0.541443 18.6353 0.828064 18.754 1.12695 18.754C1.27496 18.754 1.42151 18.7249 1.55823 18.6682C1.69495 18.6116 1.81915 18.5286 1.92383 18.424L3.55786 16.7899C5.12726 17.5906 6.73413 17.9946 8.2876 17.9946C9.86584 17.9995 11.4148 17.568 12.7632 16.7477C14.762 15.5365 16.3651 13.5021 17.3992 10.8649C18.4773 8.10583 18.9151 4.82458 18.6967 1.11206ZM11.5941 14.8202C9.71069 15.9612 7.50104 16.0474 5.24536 15.094L13.171 7.16833C13.2756 7.06372 13.3586 6.93945 13.4153 6.80273C13.4719 6.66602 13.5011 6.51941 13.5011 6.37146C13.5011 6.22351 13.4719 6.0769 13.4153 5.94019C13.3586 5.80347 13.2756 5.6792 13.171 5.57458C13.0663 5.46997 12.9421 5.38696 12.8054 5.33032C12.6687 5.27368 12.5222 5.24451 12.3741 5.24451C12.2261 5.24451 12.0796 5.27368 11.9429 5.33032C11.8062 5.38696 11.6819 5.46997 11.5773 5.57458L3.65729 13.5059C2.70667 11.2559 2.79291 9.04053 3.93854 7.1571C5.8988 3.91992 10.5516 2.12085 16.501 2.25867C16.6304 8.20618 14.8313 12.8599 11.5941 14.8202Z" fill="#000000" fill-opacity="1.000000" fill-rule="nonzero"/>
</svg>
