<svg width="20.266449" height="20.266479" viewBox="0 0 20.2664 20.2665" fill="none" xmlns="http://www.w3.org/2000/svg" xmlns:xlink="http://www.w3.org/1999/xlink">
	<desc>
			Created with Pixso.
	</desc>
	<defs/>
	<path id="Vector" d="M19.6302 6.60876C20.4367 8.77502 20.4777 11.152 19.7464 13.3447C19.0151 15.5376 17.5555 17.4141 15.6102 18.6626C13.6648 19.911 11.3509 20.4563 9.05276 20.2078C6.75467 19.9592 4.61078 18.9318 2.97736 17.2963C1.14255 15.4675 0.0784912 13.005 0.00418091 10.4154C-0.0701294 7.82593 0.850952 5.30652 2.57788 3.37549C4.30481 1.44446 6.70621 0.248901 9.28793 0.034668C11.8696 -0.179443 14.4352 0.604004 16.4568 2.22412L18.3411 0.338745C18.4458 0.234131 18.57 0.151123 18.7067 0.0944824C18.8434 0.0378418 18.99 0.00866699 19.138 0.00866699C19.286 0.00866699 19.4325 0.0378418 19.5692 0.0944824C19.706 0.151123 19.8302 0.234131 19.9349 0.338745C20.0395 0.443481 20.1225 0.567627 20.1792 0.704346C20.2358 0.841064 20.265 0.987671 20.265 1.13562C20.265 1.28369 20.2358 1.43018 20.1792 1.56689C20.1225 1.70361 20.0395 1.82788 19.9349 1.9325L10.9349 10.9325C10.8302 11.0372 10.706 11.1202 10.5693 11.1769C10.4325 11.2334 10.286 11.2626 10.138 11.2626C9.98999 11.2626 9.84344 11.2334 9.70673 11.1769C9.57001 11.1202 9.44577 11.0372 9.34113 10.9325C9.23648 10.8279 9.15347 10.7036 9.09683 10.5669C9.04019 10.4302 9.01105 10.2837 9.01105 10.1356C9.01105 9.98767 9.04019 9.84106 9.09683 9.70435C9.15347 9.56763 9.23648 9.44348 9.34113 9.33875L11.5911 7.08875C10.957 6.78577 10.244 6.68835 9.55188 6.81006C8.85968 6.93176 8.22275 7.26648 7.72992 7.76746C7.23712 8.26855 6.91302 8.91101 6.80289 9.6051C6.69275 10.2992 6.80203 11.0104 7.11551 11.6394C7.42899 12.2684 7.931 12.7839 8.55154 13.1139C9.17206 13.4438 9.8801 13.5719 10.5769 13.4802C11.2737 13.3884 11.9244 13.0814 12.4384 12.6019C12.9523 12.1226 13.3037 11.4948 13.4436 10.8059C13.5025 10.5134 13.6753 10.2563 13.9238 10.0912C14.1723 9.9259 14.4763 9.86621 14.7688 9.92517C15.0613 9.98413 15.3184 10.1569 15.4836 10.4054C15.6488 10.6538 15.7085 10.9578 15.6496 11.2504C15.4099 12.4308 14.7977 13.5032 13.9029 14.3096C13.0081 15.1161 11.8781 15.614 10.6792 15.7301C9.48029 15.8462 8.27573 15.5743 7.24286 14.9546C6.20999 14.3348 5.40332 13.3999 4.94162 12.2874C4.47992 11.1748 4.38754 9.94348 4.6781 8.77441C4.96863 7.60547 5.62677 6.56067 6.55563 5.7937C7.48447 5.02686 8.63498 4.57825 9.83783 4.51428C11.0407 4.4502 12.2323 4.77393 13.2374 5.43787L14.8527 3.82812C13.3353 2.69495 11.4604 2.14648 9.57159 2.28333C7.68274 2.42017 5.90646 3.23303 4.56824 4.573C3.23004 5.91309 2.41953 7.69043 2.28528 9.57947C2.15106 11.4685 2.70203 13.3427 3.83731 14.8585C4.97256 16.3743 6.61603 17.4302 8.46655 17.8328C10.3171 18.2354 12.2507 17.9575 13.913 17.0503C15.5754 16.1431 16.8551 14.6671 17.5177 12.8931C18.1803 11.1189 18.1814 9.16553 17.5208 7.39062C17.4682 7.25195 17.4436 7.10413 17.4484 6.95581C17.4531 6.8075 17.4872 6.66162 17.5486 6.52649C17.61 6.39136 17.6975 6.26978 17.8061 6.1687C17.9147 6.0675 18.0422 5.98889 18.1814 5.93726C18.3205 5.88562 18.4684 5.86206 18.6167 5.8678C18.765 5.87366 18.9107 5.90869 19.0453 5.97107C19.18 6.03333 19.301 6.1217 19.4014 6.23096C19.5018 6.34033 19.5795 6.46838 19.6302 6.60779L19.6302 6.60876Z" fill="#000000" fill-opacity="1.000000" fill-rule="nonzero"/>
</svg>
