<svg width="18.748108" height="20.252319" viewBox="0 0 18.7481 20.2523" fill="none" xmlns="http://www.w3.org/2000/svg" xmlns:xlink="http://www.w3.org/1999/xlink">
	<desc>
			Created with Pixso.
	</desc>
	<defs/>
	<path id="Vector" d="M18.4952 13.6809C17.6815 12.2812 17.2493 10.2722 17.2493 7.875C17.2493 5.78638 16.4196 3.78333 14.9428 2.30652C13.4659 0.829712 11.4629 0 9.3743 0C7.28572 0 5.28268 0.829712 3.80583 2.30652C2.32898 3.78333 1.4993 5.78638 1.4993 7.875C1.4993 10.2731 1.06898 12.2812 0.255234 13.6809C0.0891876 13.9664 0.00115967 14.2905 1.52588e-05 14.6208C-0.00114441 14.951 0.08461 15.2759 0.248672 15.5625C0.411682 15.8492 0.648285 16.0874 0.934067 16.2522C1.21983 16.417 1.54442 16.5026 1.8743 16.5L5.26617 16.5C5.35919 17.5253 5.83224 18.4788 6.59238 19.173C7.35252 19.8673 8.3448 20.2523 9.3743 20.2523C10.4038 20.2523 11.3961 19.8673 12.1562 19.173C12.9164 18.4788 13.3894 17.5253 13.4824 16.5L16.8743 16.5C17.2037 16.5021 17.5277 16.4163 17.8129 16.2515C18.0982 16.0867 18.3343 15.8489 18.4971 15.5625C18.6619 15.2762 18.7484 14.9518 18.7481 14.6215C18.7478 14.2913 18.6606 13.9668 18.4952 13.6809ZM9.3743 18C8.94205 18.0001 8.52306 17.8508 8.1882 17.5775C7.85336 17.3042 7.62325 16.9235 7.53679 16.5L11.2118 16.5C11.1254 16.9235 10.8952 17.3042 10.5604 17.5775C10.2255 17.8508 9.80653 18.0001 9.3743 18ZM2.49867 14.25C3.32835 12.5625 3.7493 10.4194 3.7493 7.875C3.7493 6.38318 4.34192 4.95239 5.39682 3.89758C6.45171 2.84265 7.88245 2.25 9.3743 2.25C10.8661 2.25 12.2969 2.84265 13.3518 3.89758C14.4067 4.95239 14.9993 6.38318 14.9993 7.875C14.9993 10.4185 15.4193 12.5625 16.249 14.25L2.49867 14.25Z" fill="#000000" fill-opacity="1.000000" fill-rule="nonzero"/>
</svg>
