<svg width="18.750000" height="21.000000" viewBox="0 0 18.75 21" fill="none" xmlns="http://www.w3.org/2000/svg" xmlns:xlink="http://www.w3.org/1999/xlink">
	<desc>
			Created with Pixso.
	</desc>
	<defs/>
	<path id="Vector" d="M16.875 6.75L14.25 6.75L14.25 4.875C14.25 3.58203 13.7364 2.34204 12.8221 1.42786C11.9079 0.513672 10.6679 0 9.375 0C8.08207 0 6.84209 0.513672 5.92786 1.42786C5.01361 2.34204 4.5 3.58203 4.5 4.875L4.5 6.75L1.875 6.75C1.37772 6.75 0.900803 6.94751 0.549171 7.29919C0.19754 7.65076 0 8.12769 0 8.625L0 19.125C0 19.6223 0.19754 20.0992 0.549171 20.4508C0.900803 20.8025 1.37772 21 1.875 21L16.875 21C17.3723 21 17.8492 20.8025 18.2008 20.4508C18.5525 20.0992 18.75 19.6223 18.75 19.125L18.75 8.625C18.75 8.12769 18.5525 7.65076 18.2008 7.29919C17.8492 6.94751 17.3723 6.75 16.875 6.75ZM6.75 4.875C6.75 4.17883 7.02657 3.51111 7.51884 3.0188C8.01112 2.52661 8.6788 2.25 9.375 2.25C10.0712 2.25 10.7389 2.52661 11.2312 3.0188C11.7234 3.51111 12 4.17883 12 4.875L12 6.75L6.75 6.75L6.75 4.875ZM16.5 18.75L2.25 18.75L2.25 9L16.5 9L16.5 18.75ZM10.875 13.875C10.875 14.1716 10.787 14.4617 10.6222 14.7084C10.4574 14.9551 10.2231 15.1473 9.94903 15.2609C9.67493 15.3744 9.37334 15.4041 9.08237 15.3462C8.79139 15.2883 8.52412 15.1454 8.31434 14.9357C8.10456 14.7258 7.9617 14.4586 7.90382 14.1676C7.84595 13.8767 7.87565 13.5751 7.98918 13.301C8.10271 13.0269 8.29497 12.7926 8.54164 12.6278C8.78831 12.463 9.07833 12.375 9.375 12.375C9.77283 12.375 10.1544 12.5331 10.4357 12.8143C10.717 13.0957 10.875 13.4772 10.875 13.875Z" fill="#000000" fill-opacity="1.000000" fill-rule="nonzero"/>
</svg>
